<?xml version="1.0" encoding="UTF-8"?><svg id="a" xmlns="http://www.w3.org/2000/svg" viewBox="0 0 1000 1000"><defs><style>.b{fill:#c31a1a;}.c{fill:#e0e2e1;}</style></defs><rect class="c" width="1000" height="1000"/><path class="b" d="M375.66,885.24c-41.82-15.16-78.27-35.7-109.35-61.62l-29.98-189.84h44.41c23.68,71.05,55.51,125.45,95.48,163.2,39.97,37.75,86.21,56.62,138.77,56.62,42.92,0,78.82-14.24,107.69-42.74,28.87-28.48,43.3-64.56,43.3-108.24,0-34.78-8.15-63.28-24.42-85.48-16.29-22.2-41.82-39.97-76.6-53.29l-140.99-55.51c-47.37-19.24-82.9-43.11-106.58-71.61-23.7-28.48-35.53-64.56-35.53-108.24s11.83-81.41,35.53-117.68c23.68-36.25,55.51-65.12,95.48-86.6,39.97-21.46,83.26-32.2,129.89-32.2,37,0,73.83,6.49,110.46,19.43,36.64,12.96,67.53,30.53,92.7,52.73v167.64h-45.52c-8.15-62.9-26.84-109.53-56.06-139.88-29.25-30.34-69.77-45.52-121.57-45.52-40.71,0-75.32,14.07-103.8,42.19-28.5,28.14-42.74,63.28-42.74,105.47,0,31.08,8.14,55.89,24.42,74.38,16.27,18.51,42.55,35.16,78.82,49.96l138.77,55.51c96.95,39.24,145.44,103.99,145.44,194.28,0,43.68-12.04,83.82-36.08,120.46-24.06,36.64-56.62,65.69-97.7,87.15-41.08,21.46-85.68,32.2-133.78,32.2-38.49,0-78.65-7.6-120.46-22.76Z"/></svg>